<svg height="22" viewBox="0 0 22 22" width="22" xmlns="http://www.w3.org/2000/svg"><g fill="none" fill-rule="evenodd"><path d="m-1-1h24v24h-24z" fill-rule="nonzero"/><path d="m8.25 6.417a2.75 2.75 0 1 1 5.5-.001 2.75 2.75 0 0 1 -5.5 0m6.417 0a3.667 3.667 0 1 0 -7.335.001 3.667 3.667 0 0 0 7.335 0" fill="#000"/><path d="m6.88 2.623a5.827 5.827 0 0 1 9.945 4.12c0 2.188-2.609 7.115-5.825 12.144-3.22-5.033-5.826-9.954-5.826-12.144a5.83 5.83 0 0 1 1.706-4.12m4.12 17.18a.918.918 0 0 0 .772-.422c3.357-5.248 5.97-10.183 5.97-12.638a6.743 6.743 0 1 0 -13.485 0c0 2.456 2.611 7.386 5.971 12.638a.915.915 0 0 0 .772.422" fill="#000"/><path d="m15.622 17.602a.457.457 0 1 0 -.077.913c3.253.274 5.538.895 5.538 1.193 0 .563-4.676 1.375-10.083 1.375-5.408 0-10.084-.812-10.084-1.375 0-.297 2.267-.916 5.501-1.193a.458.458 0 1 0 -.078-.913c-3.953.338-6.339.99-6.339 2.106 0 1.464 4.761 2.292 11 2.292 6.24 0 11-.828 11-2.292 0-1.12-2.405-1.771-6.378-2.106" fill="#f04d7d"/></g></svg>