<svg height="24" viewBox="0 0 22 24" width="22" xmlns="http://www.w3.org/2000/svg"><g fill="none" fill-rule="evenodd"><path d="m-1 0h24v24h-24z" fill-rule="nonzero"/><path d="m20.314 22.834a.502.502 0 0 1 -.372.166h-8.767a.502.502 0 0 1 -.497-.555l.78-7a.499.499 0 0 1 .496-.445h.604v2.5a.5.5 0 0 0 1 0v-2.5h4v2.5a.5.5 0 0 0 1 0v-2.5h.607a.5.5 0 0 1 .495.445l.779 7a.5.5 0 0 1 -.125.389zm-6.755-9.834a2 2 0 0 1 4 0v1h-4zm7.873 9.335-.777-7a1.5 1.5 0 0 0 -1.49-1.335h-.607v-1a3 3 0 1 0 -6 0v1h-.604a1.5 1.5 0 0 0 -1.492 1.335l-.777 7a1.499 1.499 0 0 0 1.49 1.665h8.767a1.503 1.503 0 0 0 1.49-1.665z" fill="#f04d7d"/><g fill="#000"><path d="m8.146 16.292h-7.169a6.23 6.23 0 0 1 9.577-4.763.479.479 0 1 0 .518-.806 7.187 7.187 0 0 0 -11.072 6.048.48.48 0 0 0 .479.479h7.667a.48.48 0 0 0 0-.958"/><path d="m7.188.959a3.588 3.588 0 0 1 3.48 2.737 6.262 6.262 0 0 1 -2.122.376 6.266 6.266 0 0 1 -4.236-1.652 3.576 3.576 0 0 1 2.878-1.462m0 7.188a3.593 3.593 0 0 1 -3.594-3.594c0-.447.092-.87.24-1.264a7.239 7.239 0 0 0 6.934 1.393 3.587 3.587 0 0 1 -3.58 3.465m-4.552-3.594a4.553 4.553 0 0 0 9.104 0c0-.167-.031-.326-.05-.49a.47.47 0 0 0 -.024-.234c-.348-2.166-2.213-3.826-4.479-3.826-1.636 0-3.06.87-3.862 2.167a.462.462 0 0 0 -.1.184 4.5 4.5 0 0 0 -.59 2.2"/></g></g></svg>