<svg height="23" viewBox="0 0 22 23" width="22" xmlns="http://www.w3.org/2000/svg"><g fill="none" fill-rule="evenodd"><path d="m-1-1h24v24h-24z"/><path d="m6.875 6.444c1.612 0 2.954 1.118 3.326 2.62a5.976 5.976 0 0 1 -6.073-1.224 3.416 3.416 0 0 1 2.747-1.396m0 6.9a3.444 3.444 0 0 1 -3.438-3.45c0-.436.09-.849.237-1.233a6.887 6.887 0 0 0 6.628 1.339c-.056 1.856-1.564 3.345-3.427 3.345m-4.354-3.45a4.361 4.361 0 0 0 4.354 4.37 4.361 4.361 0 0 0 4.354-4.37c0-.179-.031-.348-.052-.522l-.001-.005c-.262-2.163-2.076-3.844-4.301-3.844-1.62 0-3.016.898-3.766 2.215l-.002.003a4.333 4.333 0 0 0 -.586 2.152m-1.587 11.27c.234-3.088 2.804-5.52 5.941-5.52s5.707 2.432 5.941 5.52zm5.941-6.44c-3.797 0-6.875 3.09-6.875 6.9 0 .254.205.46.458.46h12.834a.459.459 0 0 0 .458-.46c0-3.81-3.078-6.9-6.875-6.9z" fill="#000"/><g fill="#f04d7d"><path d="m15.565.005c-2.608-.055-5.009 1.519-6.018 3.963a.461.461 0 0 0 .25.6.457.457 0 0 0 .598-.248 5.484 5.484 0 0 1 5.18-3.396 5.302 5.302 0 0 1 5.51 5.083 5.067 5.067 0 0 1 -3.364 4.644l-.157.095c-.099.092-.323.286-.689.6l-1.154.987c-.43.367-.779.667-1.054.906v-1.795a.46.46 0 0 0 -.394-.456 5.755 5.755 0 0 1 -1.29-.34.46.46 0 0 0 -.334.857c.356.14.725.249 1.101.326v2.437c0 .41.494.615.782.325.181-.182.752-.678 1.806-1.58-.036.03.91-.776 1.132-.967.311-.266.52-.448.646-.56a5.995 5.995 0 0 0 3.884-5.488c-.14-3.458-3.019-6.125-6.435-5.993"/><path d="m13.065 6.666a.687.687 0 0 0 .686-.692.689.689 0 1 0 -1.174.49c.13.13.304.203.488.202m3.005-.202a.686.686 0 0 0 .2-.49.686.686 0 0 0 -.667-.685c-.006 0-.01-.003-.014-.003h-.005c-.014 0-.026.006-.038.008a.684.684 0 0 0 -.45.193.697.697 0 0 0 0 .977.687.687 0 0 0 .973 0m2.037.202a.682.682 0 0 0 .484-.202.693.693 0 0 0 -.487-1.178h-.005a.688.688 0 0 0 -.68.69.685.685 0 0 0 .688.69"/></g></g></svg>