<svg height="22" viewBox="0 0 22 22" width="22" xmlns="http://www.w3.org/2000/svg"><g fill="none" fill-rule="evenodd"><path d="m-1-1h24v24h-24z"/><path d="m7 19.485-6.002-4.277v-13.74l6.002 4.292zm5.499-8.51a.5.5 0 0 0 -.5.5v3.49h-4v-9.718l-5.944-4.25h9.945v4.49a.5.5 0 0 0 .998 0v-5.487h-12.998v15.721l7.998 5.701v-5.458h5v-4.49a.5.5 0 0 0 -.5-.499z" fill="#000"/><path d="m21.959 8.672a.496.496 0 0 0 -.107-.544l-4-3.991a.5.5 0 0 0 -.705.706l3.146 3.139h-9.794a.5.5 0 0 0 0 .998h9.794l-3.146 3.138a.5.5 0 1 0 .705.707l4-3.991a.508.508 0 0 0 .107-.162" fill="#f04d7d"/></g></svg>