<svg height="22" viewBox="0 0 22 22" width="22" xmlns="http://www.w3.org/2000/svg"><g fill="none" fill-rule="evenodd"><path d="m-1-2h24v24h-24z"/><path d="m16.042 21.083a5.041 5.041 0 1 1 -.001-10.083 5.041 5.041 0 0 1 .001 10.083m0-11a5.958 5.958 0 1 0 0 11.916 5.958 5.958 0 0 0 0-11.916" fill="#f04d7d"/><path d="m15.355 13.75a.687.687 0 1 0 0-1.374.687.687 0 0 0 0 1.374m2.062 4.583h-.917v-2.75a.916.916 0 0 0 -.917-.916h-.916a.458.458 0 1 0 0 .916h.916v2.75h-.916a.458.458 0 1 0 0 .917h2.75a.458.458 0 1 0 0-.917" fill="#f04d7d"/><g fill="#000"><path d="m7.791 15.583h-6.857a5.958 5.958 0 0 1 9.162-4.555.458.458 0 1 0 .495-.771 6.875 6.875 0 0 0 -10.591 5.785c0 .253.206.458.458.458h7.333a.458.458 0 1 0 0-.917"/><path d="m6.875.917a3.432 3.432 0 0 1 3.329 2.62 5.999 5.999 0 0 1 -2.03.359 5.995 5.995 0 0 1 -4.052-1.582 3.42 3.42 0 0 1 2.753-1.397m0 6.874a3.438 3.438 0 0 1 -3.438-3.437c0-.428.088-.833.231-1.21a6.924 6.924 0 0 0 6.632 1.334 3.43 3.43 0 0 1 -3.425 3.314m-4.354-3.438a4.354 4.354 0 0 0 8.708 0c0-.16-.03-.313-.047-.468a.438.438 0 0 0 -.023-.224c-.333-2.074-2.117-3.662-4.284-3.662a4.337 4.337 0 0 0 -3.694 2.075.447.447 0 0 0 -.096.175 4.3 4.3 0 0 0 -.564 2.104"/></g></g></svg>