<svg height="22" viewBox="0 0 22 22" width="22" xmlns="http://www.w3.org/2000/svg"><g fill="none" fill-rule="evenodd"><path d="m-1-1h24v24h-24z"/><path d="m6.417 12.375a.458.458 0 0 0 .458-.458v-1.787a.678.678 0 0 0 .229-.505.687.687 0 1 0 -1.375 0c0 .202.09.379.23.505v1.787c0 .253.205.458.458.458" fill="#000"/><path d="m2.75 4.583a3.667 3.667 0 0 1 7.333 0v1.833h-7.333zm-.917 11h-.458a.459.459 0 0 1 -.458-.457v-7.334c0-.253.205-.458.458-.458h10.083c.253 0 .459.205.459.458v4.124a.459.459 0 1 0 .916 0v-4.125c0-.759-.615-1.375-1.375-1.375h-.458v-1.833a4.583 4.583 0 0 0 -4.583-4.583 4.583 4.583 0 0 0 -4.584 4.583v1.833h-.458c-.759.001-1.375.616-1.375 1.376v7.335c0 .758.616 1.374 1.375 1.374h.458a.46.46 0 0 0 0-.916z" fill="#000"/><g fill="#f04d7d"><path d="m21.083 20.625a.458.458 0 0 1 -.458.458h-15.584a.459.459 0 0 1 -.458-.458v-5.5c0-.253.206-.458.458-.458h15.584c.253 0 .458.205.458.458zm-.458-6.875h-15.584c-.759 0-1.375.615-1.375 1.375v5.5c0 .76.616 1.375 1.375 1.375h15.584c.76 0 1.375-.615 1.375-1.375v-5.5c0-.76-.615-1.375-1.375-1.375z"/><path d="m9.49 16.176a.458.458 0 0 0 -.647 0l-1.051 1.05-1.051-1.05a.458.458 0 1 0 -.648.648l1.05 1.05-1.05 1.052a.458.458 0 1 0 .648.648l1.05-1.05 1.052 1.05a.458.458 0 1 0 .648-.648l-1.051-1.051 1.05-1.051a.458.458 0 0 0 0-.648m5.042 0a.458.458 0 0 0 -.648 0l-1.05 1.05-1.052-1.05a.458.458 0 1 0 -.648.648l1.051 1.05-1.05 1.052a.458.458 0 1 0 .647.648l1.051-1.05 1.051 1.05a.458.458 0 1 0 .648-.648l-1.05-1.051 1.05-1.051a.458.458 0 0 0 0-.648m5.176 3.074h-3.666a.458.458 0 1 0 0 .917h3.666a.458.458 0 1 0 0-.917"/></g></g></svg>