<svg height="24" viewBox="0 0 20 24" width="20" xmlns="http://www.w3.org/2000/svg"><g fill="none" fill-rule="evenodd"><path d="m-2 0h24v24h-24z"/><path d="m19 22.5a.5.5 0 0 1 -.5.5h-17a.5.5 0 0 1 -.5-.5v-21a.5.5 0 0 1 .5-.5h13.293a.5.5 0 0 1 .353.146l3.708 3.708a.501.501 0 0 1 .146.353zm.561-18.354-3.707-3.707a1.503 1.503 0 0 0 -1.061-.439h-13.293a1.5 1.5 0 0 0 -1.5 1.5v21a1.5 1.5 0 0 0 1.5 1.5h17a1.5 1.5 0 0 0 1.5-1.5v-17.293c0-.398-.158-.779-.439-1.061z" fill="#000"/><path d="m7.593 5.48-2.157 3.02-1.083-1.083a.5.5 0 0 0 -.707.706l1.084 1.084a1 1 0 0 0 1.52-.123l2.156-3.024a.499.499 0 1 0 -.813-.58m7.907 1.52h-4a.5.5 0 0 0 0 1h4a.5.5 0 0 0 0-1m-7.907 3.48-2.157 3.02-1.083-1.082a.5.5 0 0 0 -.707.708l1.083 1.082a1.002 1.002 0 0 0 1.52-.126l2.157-3.02a.499.499 0 1 0 -.813-.582m7.907 1.52h-4a.5.5 0 0 0 0 1h4a.5.5 0 0 0 0-1m-7.907 3.48-2.157 3.02-1.083-1.082a.5.5 0 1 0 -.707.707l1.083 1.082a1.002 1.002 0 0 0 1.52-.125l2.157-3.02a.499.499 0 1 0 -.813-.582m7.907 1.52h-4a.5.5 0 0 0 0 1h4a.5.5 0 0 0 0-1" fill="#f04d7d"/></g></svg>