<svg height="46" viewBox="0 0 38 46" width="38" xmlns="http://www.w3.org/2000/svg"><g fill="none" fill-rule="evenodd" transform="translate(0 1)"><path d="m13.5 38.0892857c-.4438002 0-.8035714-.3597712-.8035714-.8035714 0-.4438003.3597712-.8035714.8035714-.8035714h4.8200846c3.1073816 0 5.626344-2.5184359 5.626344-5.625 0-3.1065642-2.5189624-5.625-5.626344-5.625h-4.8200846c-.4438002 0-.8035714-.3597712-.8035714-.8035715 0-.4438002.3597712-.8035714.8035714-.8035714h4.8200846c3.9949069 0 7.2334868 3.237903 7.2334868 7.2321429 0 3.9942398-3.2385799 7.2321428-7.2334868 7.2321428z" fill="#000" fill-rule="nonzero" transform="matrix(0 1 -1 0 49.982143 11.732143)"/><path d="m21.214286 13.5h4.178571v4.821429h-4.178571z" fill="#f04d7d"/><g fill="#000" fill-rule="nonzero"><path d="m2.70595963 19.2395044-.34516505 9.058661c-.016898.4434785-.39010683.7892902-.83358526.7723922s-.78929019-.3901068-.77239219-.8335852l.35103501-9.2127147c.02952571-.7748855.66486736-1.3886282 1.44031042-1.3913459l32.82598714-.1150457c.7796297-.0027324 1.4211474.6129281 1.4504741 1.3920109l.9446646 25.0956102c.0171399.4553315-.3473487.8337985-.8030027.8337985h-35.99999999c-.45579332 0-.82033506-.3786891-.80298932-.8341523l.48968957-12.8582295c.01688933-.4434788.39009141-.7892978.83357016-.7724085.44347876.0168893.78929782.3900914.77240848.8335702l-.45792192 12.0240773h34.33085392l-.9074356-24.1065994z"/><g transform="translate(4.5)"><path d="m3.99239792 14.9405094c.44380025 0 .80357143.3597712.80357143.8035714 0 .4438003-.35977118.8035715-.80357143.8035715h-2.40291597l-.0653588-.0026624c-1.34813546-.1100157-2.17868065-.8539037-2.17868065-2.0910819 0-1.1361751.69387816-1.9816278 1.91830258-2.4688295l12.67676982-6.26213989c.3978997-.19655664.8798017-.03333587 1.0763584.36456379.1965566.39789966.0333359.87980172-.3645638 1.07635836l-12.70693027 6.27703864-.06434546.0283544c-.6749376.2627874-.92844841.5678642-.92844841.9846542 0 .3202873.12501456.4381775.67096558.4866014z"/><path d="m23.9822402 16.5476523c-.4438002 0-.8035714-.3597712-.8035714-.8035715 0-.4438002.3597712-.8035714.8035714-.8035714h2.7441847l.0480083.0014354c.9122082.0545961 1.1325563-.0886839 1.1325563-.4880368 0-.3883262-.4302039-.820902-1.4842157-1.2510843l-10.296172-4.76394947c-.4027618-.18639093-.578165-.66399359-.3917741-1.06675541.1863909-.40276181.6639936-.57816508 1.0667554-.39177415l10.2459757 4.74165333c1.5805551.648983 2.4665736 1.5442424 2.4665736 2.73191 0 1.4721219-1.0918649 2.1891579-2.8108315 2.0937443z"/><path d="m15.1181799 6.56178596c-.1218235.42675249-.5665322.67394627-.9932847.55212275-.4267525-.12182351-.6739463-.56653223-.5521228-.99328472.1764932-.61826254.7084928-1.40448182 1.230762-1.99657407.6553007-.74290885.9235064-1.27086957.9235064-1.82813155 0-.82972322-.6422353-1.49234694-1.4217033-1.49234694s-1.4217033.66262372-1.4217033 1.49234694c0 .44380024-.3597712.80357143-.8035714.80357143-.4438003 0-.8035714-.35977119-.8035714-.80357143 0-1.70627818 1.3503435-3.0994898 3.0288461-3.0994898s3.0288462 1.39321162 3.0288462 3.0994898c0 1.02500723-.4356456 1.88257183-1.325386 2.89126304-.3737044.4236656-.798273 1.05111728-.8906178 1.37460455z"/></g><path d="m9.80357143 18c0 .4438002-.35977118.8035714-.80357143.8035714s-.80357143-.3597712-.80357143-.8035714v-4.7358296c0-.442408.35760116-.8015999.80000484-.8035635l19.28571429-.085599c.4451893-.0019759.807138.3583698.807138.8035635v4.8214286c0 .4438002-.3597712.8035714-.8035714.8035714-.4438003 0-.8035714-.3597712-.8035714-.8035714v-4.0142826l-17.67857147.0784657z"/></g></g></svg>