<svg height="46" viewBox="0 0 39 46" width="39" xmlns="http://www.w3.org/2000/svg"><g fill="none" fill-rule="evenodd" transform="translate(1 1)"><g transform="matrix(.95630476 -.2923717 .2923717 .95630476 .171222 9.593786)"><path d="m.8003281 1.02743882v5.81306982c0 .44065273-.35721961.79787234-.79787234.79787234s-.79787234-.35721961-.79787234-.79787234v-6.61094216c0-.44065273.35721961-.79787234.79787234-.79787234h31.91489364c.4406527 0 .7978723.35721961.7978723.79787234v20.74468082c0 .4406019-.3571403.7978005-.7977422.7978724l-31.91649035.0052057c-.44067972.0000719-.79796879-.3571316-.79800247-.7978114l-.00085902-11.23714044c-.00003368-.44065273.35715862-.79789965.79781135-.79793334.44065272-.00003368.79789964.35715863.79793333.79781135l.00079802 10.43919903 30.32080664-.0049455v-19.14906628z" fill="#000" fill-rule="nonzero"/><path d="m3.82978723 4.14893617h8.93617017v6.38297873h-8.93617017z" fill="#f04d7d"/><g fill="#000" fill-rule="nonzero"><path d="m4.11316948 15.0027513c-.44065273 0-.79787234-.3572196-.79787234-.7978724 0-.4406527.35721961-.7978723.79787234-.7978723h7.51590232c.4406527 0 .7978723.3572196.7978723.7978723 0 .4406528-.3572196.7978724-.7978723.7978724z"/><path d="m21.8809611 15.057777c-.4406527 0-.7978723-.3572197-.7978723-.7978724s.3572196-.7978723.7978723-.7978723h4.1296772c.4406527 0 .7978723.3572196.7978723.7978723s-.3572196.7978724-.7978723.7978724z"/><path d="m4.11316948 17.8640866c-.44065273 0-.79787234-.3572196-.79787234-.7978724 0-.4406527.35721961-.7978723.79787234-.7978723h2.86133529c.44065272 0 .79787234.3572196.79787234.7978723 0 .4406528-.35721962.7978724-.79787234.7978724z"/></g></g><g fill="#000" fill-rule="nonzero"><path d="m36.2234043 23.9361702c0-.4406527.3572196-.7978723.7978723-.7978723s.7978723.3572196.7978723.7978723v20.106383c0 .4406527-.3572196.7978723-.7978723.7978723-1.0012123 0-1.5511825-.3189933-2.2415571-1.0465448-.0276832-.029201-.0276832-.029201-.0543867-.0573782-.3839527-.404831-.5288131-.4918216-.8972597-.4918216-.3931037 0-.5593962.1000555-1.0094541.5543199-.7344055.7412689-1.234943 1.0414247-2.1720619 1.0414247-.9321913 0-1.4397937-.2974991-2.1852111-1.024584-.4789204-.4671386-.6553268-.5711606-1.041341-.5711606-.3800468 0-.5401274.0975296-.9767705.5455013-.7279773.7468623-1.2286425 1.0502433-2.1648519 1.0502433-.9270971 0-1.4243211-.2960639-2.151285-1.0218182-.470498-.4697148-.646265-.5739264-1.0613978-.5739264-.4202273 0-.6091268.1097381-1.0878139.5732146-.7550693.7310704-1.2535172 1.02253-2.1660092 1.02253-.9284082 0-1.4208899-.2988965-2.1469664-1.0357257-.4531726-.4598839-.6181226-.5600189-1.0093044-.5600189-.360318 0-.497722.083389-.8676454.481095-.028468.0306339-.028468.0306339-.0581139.0625199-.6788319.7292911-1.2324235 1.0521297-2.2404849 1.0521297-.4406527 0-.7978723-.3572196-.7978723-.7978723v-12.6491145c0-.4406528.3572196-.7978724.7978723-.7978724s.7978723.3572196.7978723.7978724v11.5796759c.0828953-.0719391.1715891-.161417.2745662-.2720487.0283399-.0304815.0283399-.0304815.057725-.062102.6425097-.6907643 1.1356199-.9900277 2.0360807-.9900277.9276097 0 1.4196718.2987126 2.1454183 1.0352071.4535206.4602369.6187825.5605376 1.0108525.5605376.3930207 0 .5721728-.1047565 1.039248-.5569857.7662085-.7418624 1.2772758-1.038759 2.2145751-1.038759.9416797 0 1.4465499.2993359 2.1795282 1.0310938.4642118.4634397.6341908.5646509 1.0331546.5646509.3997769 0 .5668844-.1012598 1.0110146-.5569113.7208393-.7395417 1.2120828-1.0388334 2.1306078-1.0388334.9090646 0 1.4048937.2923767 2.1398752 1.0092759.489823.4777772.675276.5864688 1.0866769.5864688.4056422 0 .5763966-.1023958 1.0313004-.5615509.7297836-.7366046 1.2243774-1.0341938 2.1502156-1.0341938.9033499 0 1.398885.2975757 2.0550826.9894555.0274956.0290128.0274956.0290128.0541126.0570893.1077516.1135541.200148.2050493.286136.278315z"/><path d="m23.6148396 33.0319149c-.4406527 0-.7978723-.3572196-.7978723-.7978723 0-.4406528.3572196-.7978724.7978723-.7978724h8.9383519c.4406527 0 .7978723.3572196.7978723.7978724 0 .4406527-.3572196.7978723-.7978723.7978723z"/><path d="m15.7330452 35.9042553c-.4406527 0-.7978723-.3572196-.7978723-.7978723s.3572196-.7978724.7978723-.7978724h16.8201463c.4406527 0 .7978723.3572197.7978723.7978724s-.3572196.7978723-.7978723.7978723z"/><path d="m20.4202335 38.7765957c-.4406527 0-.7978723-.3572196-.7978723-.7978723s.3572196-.7978723.7978723-.7978723h12.132958c.4406527 0 .7978723.3572196.7978723.7978723s-.3572196.7978723-.7978723.7978723z"/></g></g></svg>