<svg height="46" viewBox="0 0 35 46" width="35" xmlns="http://www.w3.org/2000/svg"><g fill="none" fill-rule="evenodd" transform=""><ellipse cx="17.234043" cy="39.93617" fill="#f04c7d" rx="4.787234" ry="1.914894"/><g fill="#000" fill-rule="nonzero"><path d="m34.0033325 41.3770549c.0071885.0335209.0122992.0678868.0151815.1029699l.2873198 3.4971976c.038201.4647342-.3286841.8632031-.7951955.8632031h-32.55319149c-.46641689 0-.83338396-.3983524-.79519316-.8632031l.28731975-3.4971976c.00288233-.0350831.00799303-.069449.01518156-.1029699l.64067966-7.6249635c.06250846-.743936.68456965-1.3159212 1.4311272-1.3159212h5.16945365c.44065272 0 .79787234.3572196.79787234.7978724 0 .4406527-.35721962.7978723-.79787234.7978723h-5.02272495l-.85811709 10.212766h30.81774057l-.8581171-10.212766h-5.0227249c-.4406528 0-.7978724-.3572196-.7978724-.7978723 0-.4406528.3572196-.7978724.7978724-.7978724h5.1694536c.7465576 0 1.3686188.5719852 1.4311272 1.3159212z"/><g transform="translate(1.87234)"><path d="m15.6605188 37.8741002c.446525-.4522555 1.036123-1.1071931 1.7029621-1.8944497 1.5203183-1.7948566 3.2547197-4.0491725 4.8502217-6.339735 4.1346283-5.9358277 6.7118293-11.1466407 6.7118293-14.2782134 0-7.13857413-6.4252556-13.56382976-13.5638298-13.56382976-7.13857413 0-13.56382976 6.42525563-13.56382976 13.56382976 0 .4406528-.35721961.7978724-.79787234.7978724s-.79787234-.3572196-.79787234-.7978724c0-8.01987958 7.13969486-15.15957444 15.15957444-15.15957444 8.0198796 0 15.1595745 7.13969486 15.1595745 15.15957444 0 3.5734545-2.6780137 8.9880997-6.9981731 15.1902826-1.6242545 2.3318407-3.3892852 4.6259676-4.9419862 6.4590545-1.7267913 2.0386145-2.6094602 2.9326111-3.2194152 2.9326111h-.1174672l-.112483-.0338546c-.8558139-.2575785-3.6574926-3.482722-6.55661436-7.4347784-3.45781242-4.7136584-6.21607013-9.3326896-7.47673811-12.8672321-.14803376-.4150432.06842013-.8715072.4834633-1.019541.41504317-.1480337.87150721.0684202 1.01954097.4834633 1.19721542 3.3566403 3.88650636 7.8601784 7.26040327 12.4594439 2.22523263 3.0334169 4.65821663 5.8955805 5.47683953 6.6565783.0932233-.0863217.2012398-.1914489.3218723-.3136295z"/><path d="m15.3084189 22.2251552c.0176111-.0011612.0353783-.0017509.0532832-.0017509.4253683 0 .8420983-.0369854 1.2471494-.1079158.4048831-.0718829.8091309-.179658 1.2088463-.3251426.3997462-.1454957.778722-.3227966 1.1351098-.528005.9084679-.5256531 1.6910887-1.2446285 2.2916055-2.1006692.5990262-.8570842 1.00697-1.8384114 1.190208-2.8718759.070941-.4050804.1079321-.8218416.1079321-1.2472426 0-.4253683-.0369854-.8420982-.1079157-1.2471493-.071883-.4048832-.1796581-.809131-.3251426-1.2088464-.1454957-.3997462-.3227967-.778722-.5280051-1.1351098-.5256531-.9084678-1.2446285-1.69108872-2.1006691-2.29160545-.8570843-.59902625-1.8384115-1.00697005-2.8718759-1.19020804-.4050804-.07094102-.8218417-.10793208-1.2472427-.10793208-.4253683 0-.8420982.03698538-1.2471493.10791574-.4048831.0718829-.8091309.17965803-1.2088464.32514257-.0168251.00612384-.0337225.01164637-.0506687.01657855-2.7298147 1.01698633-4.67418664 3.64703411-4.67418664 6.73121421 0 .4406527-.35721961.7978723-.79787234.7978723-.44065272 0-.79787234-.3572196-.79787234-.7978723 0-4.3272854 3.13170442-7.92312201 7.25230212-8.64469874 1.0270834-.18234826 2.057512-.17572245 3.0487013.00001997 1.2885743.22566573 2.480441.7324085 3.5100706 1.45469872 1.0308848.7204975 1.9147097 1.66716962 2.5674844 2.80085115.5041506.8713058.8628042 1.8373258 1.0427361 2.8648353.1823482 1.0270833.1757224 2.0575119-.00002 3.0487013-.2256657 1.2885742-.7324085 2.4804409-1.4546987 3.5100705-.7204975 1.0308849-1.6671696 1.9147097-2.8008512 2.5674845-.8713058.5041506-1.8373258.8628041-2.8648352 1.042736-4.1188891.7312671-8.29157716-1.576608-9.77159593-5.6429262-.15071211-.4140781.06278822-.871931.47686634-1.0226431.41407811-.1507121.87193105.0627882 1.02264316.4768663 1.05485173 2.8981813 3.78149293 4.7046034 6.69450953 4.7266063z"/></g></g></g></svg>