<svg width="320" height="382" viewBox="0 0 320 382" fill="none" xmlns="http://www.w3.org/2000/svg">
<path opacity="0.1" fill-rule="evenodd" clip-rule="evenodd" d="M134.807 286.313L144.188 249.749L402.548 181.981C417.492 178.062 427.961 164.405 428 148.781C428.038 133.157 417.633 119.53 402.711 115.656L-38.6861 1.07203C-53.6109 -2.80009 -69.2701 4.05841 -76.7528 17.7497C-84.2355 31.4411 -81.6439 48.4888 -70.4544 59.1922L123.04 244.259L118.911 260.349C90.5458 258.364 63.8628 277.093 56.4449 306.005C48.0921 338.561 67.3667 371.75 99.4696 380.084C131.587 388.422 164.403 368.773 172.76 336.199L175.511 325.475L154.363 319.986L151.612 330.71C146.293 351.439 125.41 363.942 104.972 358.636C84.5497 353.334 72.279 332.207 77.5931 311.495C82.9116 290.765 103.793 278.262 124.232 283.568L134.807 286.313ZM-57.9469 28.6833C-55.2974 23.8372 -49.7531 21.4053 -44.4693 22.7755L397.54 137.401C402.821 138.771 406.504 143.596 406.489 149.125C406.473 154.656 402.765 159.491 397.475 160.88L138.308 228.928L-55.7221 43.3533C-59.6824 39.5654 -60.5971 33.5315 -57.9469 28.6833Z" fill="black"/>
</svg>
