<svg xmlns="http://www.w3.org/2000/svg" width="80" height="80" viewBox="0 0 80 80">
    <g fill="none" fill-rule="evenodd">
        <path fill="#000" d="M64.072 57.721c2.703 4.55 4.261 9.895 4.261 15.612H10c0-16.557 13.07-30 29.167-30 7.301 0 13.98 2.766 19.097 7.333l-1.806 1.738c-4.655-4.096-10.691-6.57-17.291-6.57-13.918 0-25.332 11.007-26.558 25h53.115c-.36-4.103-1.595-7.95-3.512-11.336l1.86-1.777zM38.333 6.667c8.279 0 15 6.721 15 15 0 8.278-6.721 15-15 15-8.278 0-15-6.722-15-15 0-8.279 6.722-15 15-15zm0 2.5c-6.899 0-12.5 5.6-12.5 12.5 0 6.899 5.601 12.5 12.5 12.5 6.9 0 12.5-5.601 12.5-12.5 0-6.9-5.6-12.5-12.5-12.5z"/>
        <path fill="#F04D7D" d="M49.778 62.296L69.191 43.833 71.667 46.363 49.778 67.167 41.667 59.143 44.124 56.714z"/>
    </g>
</svg>
