<svg height="140" viewBox="0 0 155 140" width="155" xmlns="http://www.w3.org/2000/svg"><g fill="none" fill-rule="evenodd"><path d="m65.619 86.796-19.069 14.29c-1.17.878-2.837.04-2.837-1.425v-14.034c0-.983.795-1.78 1.775-1.78s1.775.797 1.775 1.78v10.482l16.074-12.047a1.768 1.768 0 0 1 1.088-.664c22.448-4.085 38.58-20.343 38.58-39.137 0-22.062-22.061-40.108-49.432-40.108-27.371 0-49.433 18.046-49.433 40.107 0 17.401 13.842 32.745 34.023 38.119a1.78 1.78 0 0 1 -.911 3.44c-21.636-5.761-36.66-22.414-36.66-41.559 0-24.204 23.79-43.666 52.98-43.666 29.191 0 52.982 19.462 52.982 43.668 0 20.498-17.201 37.993-40.935 42.535zm-36.302-34c-4.701 0-8.512-3.821-8.512-8.535s3.81-8.536 8.512-8.536 8.513 3.822 8.513 8.536-3.811 8.536-8.513 8.536zm0-3.559a4.97 4.97 0 0 0 4.963-4.976 4.97 4.97 0 0 0 -4.963-4.977 4.97 4.97 0 0 0 -4.963 4.977 4.97 4.97 0 0 0 4.963 4.976zm24.256 3.56c-4.701 0-8.513-3.822-8.513-8.536s3.812-8.536 8.513-8.536 8.512 3.822 8.512 8.536-3.81 8.536-8.512 8.536zm0-3.56a4.97 4.97 0 0 0 4.963-4.976 4.97 4.97 0 0 0 -4.963-4.977 4.97 4.97 0 0 0 -4.963 4.977 4.97 4.97 0 0 0 4.963 4.976zm24.256 3.56c-4.702 0-8.513-3.822-8.513-8.536s3.811-8.536 8.513-8.536c4.701 0 8.512 3.822 8.512 8.536s-3.811 8.536-8.512 8.536zm0-3.56a4.97 4.97 0 0 0 4.963-4.976 4.97 4.97 0 0 0 -4.963-4.977 4.97 4.97 0 0 0 -4.963 4.977 4.97 4.97 0 0 0 4.963 4.976z" fill="#000" fill-rule="nonzero"/><path d="m122.884 79.993c2.566-.49 3.968-.77 4.35-.872 15.804-4.228 26.793-16.427 26.793-30.479 0-17.78-17.423-32.032-38.757-32.032-2.688 0-5.342.226-7.932.67a1.78 1.78 0 0 0 -1.45 2.055 1.775 1.775 0 0 0 2.05 1.454c2.391-.41 4.845-.62 7.332-.62 19.515 0 35.208 12.837 35.208 28.473 0 12.312-9.81 23.201-24.159 27.04-.303.081-2.122.44-5.244 1.032-.047.01-.093.02-.139.032-.899.087-1.602.847-1.602 1.772v6.584l-10.771-8.073a1.767 1.767 0 0 0 -1.043-.607 41.071 41.071 0 0 1 -5.789-1.492 1.774 1.774 0 0 0 -2.248 1.118 1.78 1.78 0 0 0 1.115 2.255c1.868.63 3.795 1.14 5.768 1.523l13.68 10.253c1.17.877 2.838.04 2.838-1.426v-8.66z" fill="#000"/><g fill="#e0e0e0"><ellipse cx="53.836" cy="137.627" opacity=".499" rx="51.469" ry="2.373"/><ellipse cx="117.729" cy="132.881" opacity=".499" rx="36.088" ry="2.373"/></g></g></svg>